# xmcd
#
# Track frame offsets: 
#        150
#        15805
#        40051
#        57812
#        84839
#        111217
#        126374
#        140603
#        163632
#        188104
#        214739
#        244312
#        261767
#        288941
#        310896
#        333417
#        345443
#
# Disc length: 4789 seconds
#
# Revision: 3
# Processed by: cddbd v1.5.2PL0 Copyright (c) Steve Scherf et al.
# Submitted via: ExactAudioCopy v1.3
#
DISCID=ea12b311
DTITLE=Various Artist - Akella Presents - vol.82 - Women's Blues  CD1
DYEAR=2016
DGENRE=Blues
TTITLE0=Lucinda Williams - Can't Let Go
TTITLE1=Bianca Kinane and John Verity - While My Guitar Gently Weeps
TTITLE2=Zee Bee - Addicted
TTITLE3=Tina Schlieske - Gimmie A Penny
TTITLE4=Christine Lakeland - Good Faith
TTITLE5=Mavis Staples - Will The Circle Be Unbroken
TTITLE6=Sena Ehrhardt - Lovers can't Be Friends
TTITLE7=Terisa Griffin - Tonight Is the Night
TTITLE8=Sharrie Williams - Jealousy
TTITLE9=Karen Carroll - Help Me
TTITLE10=Lady Bianca - Can You Slip Away Again Tonight
TTITLE11=Dana Gillespie - Take It Like A Man
TTITLE12=Bridget Kelly - Dancin' with the Blues
TTITLE13=Sista Monica Parker - Never Say Never
TTITLE14=Papermoon Gypsys - Have You Ever Had
TTITLE15=Ruby Hayes - Everyday I Have the Blues
TTITLE16=No Sinner - I Know It's A Sin
EXTD=
EXTT0=
EXTT1=
EXTT2=
EXTT3=
EXTT4=
EXTT5=
EXTT6=
EXTT7=
EXTT8=
EXTT9=
EXTT10=
EXTT11=
EXTT12=
EXTT13=
EXTT14=
EXTT15=
EXTT16=
PLAYORDER=
